STARTFONT 2.1
COMMENT
COMMENT Converted from OpenType font "FRUCRG__.TTF" by "otf2bdf 3.0".
COMMENT
FONT -FreeType-Frucade Regular-Medium-R-Normal--17-120-100-100-P-82-ISO10646-1
SIZE 12 100 100
FONTBOUNDINGBOX 17 27 0 -4
STARTPROPERTIES 19
FOUNDRY "FreeType"
FAMILY_NAME "Frucade Regular"
WEIGHT_NAME "Medium"
SLANT "R"
SETWIDTH_NAME "Normal"
ADD_STYLE_NAME ""
PIXEL_SIZE 17
POINT_SIZE 120
RESOLUTION_X 100
RESOLUTION_Y 100
SPACING "P"
AVERAGE_WIDTH 82
CHARSET_REGISTRY "ISO10646"
CHARSET_ENCODING "1"
FONT_ASCENT 23
FONT_DESCENT 4
COPYRIGHT "Frcuade Regular - © 2005 Michael Schmidt - http://www.style-force.net"
_OTF_FONTFILE "FRUCRG__.TTF"
_OTF_PSNAME "FrucadeRegular"
ENDPROPERTIES
CHARS 193
STARTCHAR 0020
ENCODING 32
SWIDTH 360 0
DWIDTH 6 0
BBX 0 0 0 0
BITMAP
ENDCHAR
STARTCHAR 0021
ENCODING 33
SWIDTH 240 0
DWIDTH 4 0
BBX 2 15 0 0
BITMAP
C0
C0
C0
C0
C0
C0
C0
C0
C0
C0
C0
00
00
C0
C0
ENDCHAR
STARTCHAR 0022
ENCODING 34
SWIDTH 480 0
DWIDTH 8 0
BBX 6 5 0 10
BITMAP
CC
CC
CC
CC
CC
ENDCHAR
STARTCHAR 0023
ENCODING 35
SWIDTH 780 0
DWIDTH 13 0
BBX 10 11 0 2
BITMAP
3300
3300
3300
FFC0
FFC0
3300
3300
FFC0
FFC0
3300
3300
ENDCHAR
STARTCHAR 0024
ENCODING 36
SWIDTH 780 0
DWIDTH 13 0
BBX 10 19 0 -2
BITMAP
0C00
0C00
3F00
3F00
CCC0
CCC0
CC00
CC00
4C00
3F00
3F00
0CC0
0CC0
CCC0
CCC0
3F00
3F00
0C00
0C00
ENDCHAR
STARTCHAR 0025
ENCODING 37
SWIDTH 1020 0
DWIDTH 17 0
BBX 15 15 0 0
BITMAP
300E
300E
CC38
CC38
5040
30C0
30C0
0300
0300
0C38
0C38
30CE
30CE
C038
C038
ENDCHAR
STARTCHAR 0026
ENCODING 38
SWIDTH 780 0
DWIDTH 13 0
BBX 10 15 0 0
BITMAP
3C00
3C00
C300
C300
C300
C300
4400
3C00
3C00
CC00
CC00
C300
C300
3CC0
3CC0
ENDCHAR
STARTCHAR 0027
ENCODING 39
SWIDTH 240 0
DWIDTH 4 0
BBX 2 5 0 10
BITMAP
C0
C0
C0
C0
C0
ENDCHAR
STARTCHAR 0028
ENCODING 40
SWIDTH 480 0
DWIDTH 8 0
BBX 6 15 0 0
BITMAP
0C
0C
30
30
40
C0
C0
C0
C0
C0
C0
30
30
0C
0C
ENDCHAR
STARTCHAR 0029
ENCODING 41
SWIDTH 480 0
DWIDTH 8 0
BBX 6 15 0 0
BITMAP
C0
C0
30
30
10
0C
0C
0C
0C
0C
0C
30
30
C0
C0
ENDCHAR
STARTCHAR 002A
ENCODING 42
SWIDTH 780 0
DWIDTH 13 0
BBX 10 11 0 2
BITMAP
0C00
0C00
0C00
CCC0
CCC0
3F00
3F00
CCC0
CCC0
0C00
0C00
ENDCHAR
STARTCHAR 002B
ENCODING 43
SWIDTH 480 0
DWIDTH 8 0
BBX 6 6 0 4
BITMAP
30
30
FC
FC
30
30
ENDCHAR
STARTCHAR 002C
ENCODING 44
SWIDTH 360 0
DWIDTH 6 0
BBX 4 6 0 -2
BITMAP
30
30
30
30
C0
C0
ENDCHAR
STARTCHAR 002D
ENCODING 45
SWIDTH 600 0
DWIDTH 10 0
BBX 8 2 0 6
BITMAP
FF
FF
ENDCHAR
STARTCHAR 002E
ENCODING 46
SWIDTH 240 0
DWIDTH 4 0
BBX 2 2 0 0
BITMAP
C0
C0
ENDCHAR
STARTCHAR 002F
ENCODING 47
SWIDTH 1020 0
DWIDTH 17 0
BBX 15 15 0 0
BITMAP
000E
000E
0038
0038
0040
00C0
00C0
0300
0300
0C00
0C00
3000
3000
C000
C000
ENDCHAR
STARTCHAR 0030
ENCODING 48
SWIDTH 600 0
DWIDTH 10 0
BBX 8 15 0 0
BITMAP
3C
3C
C3
C3
C3
C3
C3
C3
C3
C3
C3
C3
C3
3C
3C
ENDCHAR
STARTCHAR 0031
ENCODING 49
SWIDTH 480 0
DWIDTH 8 0
BBX 6 15 0 0
BITMAP
0C
0C
3C
3C
4C
CC
CC
0C
0C
0C
0C
0C
0C
0C
0C
ENDCHAR
STARTCHAR 0032
ENCODING 50
SWIDTH 600 0
DWIDTH 10 0
BBX 8 15 0 0
BITMAP
3C
3C
C3
C3
03
03
04
0C
0C
30
30
C0
C0
FF
FF
ENDCHAR
STARTCHAR 0033
ENCODING 51
SWIDTH 600 0
DWIDTH 10 0
BBX 8 15 0 0
BITMAP
3C
3C
C3
C3
03
03
04
0C
0C
03
03
C3
C3
3C
3C
ENDCHAR
STARTCHAR 0034
ENCODING 52
SWIDTH 900 0
DWIDTH 15 0
BBX 13 15 0 0
BITMAP
03C0
03C0
0CC0
0CC0
10C0
30C0
30C0
C0C0
C0C0
FFF8
FFF8
00C0
00C0
00C0
00C0
ENDCHAR
STARTCHAR 0035
ENCODING 53
SWIDTH 600 0
DWIDTH 10 0
BBX 8 15 0 0
BITMAP
FF
FF
C0
C0
C0
C0
C0
FC
FC
03
03
03
03
FC
FC
ENDCHAR
STARTCHAR 0036
ENCODING 54
SWIDTH 600 0
DWIDTH 10 0
BBX 8 15 0 0
BITMAP
3C
3C
C3
C3
C0
C0
C0
FC
FC
C3
C3
C3
C3
3C
3C
ENDCHAR
STARTCHAR 0037
ENCODING 55
SWIDTH 600 0
DWIDTH 10 0
BBX 8 15 0 0
BITMAP
FF
FF
03
03
04
0C
0C
30
30
30
30
30
30
30
30
ENDCHAR
STARTCHAR 0038
ENCODING 56
SWIDTH 600 0
DWIDTH 10 0
BBX 8 15 0 0
BITMAP
3C
3C
C3
C3
C3
C3
44
3C
3C
C3
C3
C3
C3
3C
3C
ENDCHAR
STARTCHAR 0039
ENCODING 57
SWIDTH 600 0
DWIDTH 10 0
BBX 8 15 0 0
BITMAP
3C
3C
C3
C3
C3
C3
43
3F
3F
03
03
C3
C3
3C
3C
ENDCHAR
STARTCHAR 003A
ENCODING 58
SWIDTH 240 0
DWIDTH 4 0
BBX 2 6 0 4
BITMAP
C0
C0
00
00
C0
C0
ENDCHAR
STARTCHAR 003B
ENCODING 59
SWIDTH 360 0
DWIDTH 6 0
BBX 4 12 0 -2
BITMAP
30
30
00
00
30
30
30
30
30
30
C0
C0
ENDCHAR
STARTCHAR 003C
ENCODING 60
SWIDTH 480 0
DWIDTH 8 0
BBX 6 11 0 2
BITMAP
0C
0C
10
30
30
C0
C0
30
30
0C
0C
ENDCHAR
STARTCHAR 003D
ENCODING 61
SWIDTH 600 0
DWIDTH 10 0
BBX 8 6 0 4
BITMAP
FF
FF
00
00
FF
FF
ENDCHAR
STARTCHAR 003E
ENCODING 62
SWIDTH 480 0
DWIDTH 8 0
BBX 6 11 0 2
BITMAP
C0
C0
40
30
30
0C
0C
30
30
C0
C0
ENDCHAR
STARTCHAR 003F
ENCODING 63
SWIDTH 600 0
DWIDTH 10 0
BBX 8 15 0 0
BITMAP
3C
3C
C3
C3
03
03
04
0C
0C
30
30
00
00
30
30
ENDCHAR
STARTCHAR 0040
ENCODING 64
SWIDTH 1020 0
DWIDTH 17 0
BBX 15 15 0 0
BITMAP
0FC0
0FC0
3FF8
3038
3038
C30E
C30E
CCCE
CCCE
C338
C338
3000
3000
0FC0
0FC0
ENDCHAR
STARTCHAR 0041
ENCODING 65
SWIDTH 600 0
DWIDTH 10 0
BBX 8 15 0 0
BITMAP
3C
3C
C3
C3
C3
C3
C3
FF
FF
C3
C3
C3
C3
C3
C3
ENDCHAR
STARTCHAR 0042
ENCODING 66
SWIDTH 600 0
DWIDTH 10 0
BBX 8 15 0 0
BITMAP
FC
FC
C3
C3
C3
C3
C4
FC
FC
C3
C3
C3
C3
FC
FC
ENDCHAR
STARTCHAR 0043
ENCODING 67
SWIDTH 600 0
DWIDTH 10 0
BBX 8 15 0 0
BITMAP
3F
3F
C0
C0
C0
C0
C0
C0
C0
C0
C0
C0
C0
3F
3F
ENDCHAR
STARTCHAR 0044
ENCODING 68
SWIDTH 600 0
DWIDTH 10 0
BBX 8 15 0 0
BITMAP
FC
FC
C3
C3
C3
C3
C3
C3
C3
C3
C3
C3
C3
FC
FC
ENDCHAR
STARTCHAR 0045
ENCODING 69
SWIDTH 600 0
DWIDTH 10 0
BBX 8 15 0 0
BITMAP
FF
FF
C0
C0
C0
C0
C0
FF
FF
C0
C0
C0
C0
FF
FF
ENDCHAR
STARTCHAR 0046
ENCODING 70
SWIDTH 600 0
DWIDTH 10 0
BBX 8 15 0 0
BITMAP
FF
FF
C0
C0
C0
C0
C0
FF
FF
C0
C0
C0
C0
C0
C0
ENDCHAR
STARTCHAR 0047
ENCODING 71
SWIDTH 600 0
DWIDTH 10 0
BBX 8 15 0 0
BITMAP
3F
3F
C3
C3
C0
C0
C0
CF
CF
C3
C3
C3
C3
3C
3C
ENDCHAR
STARTCHAR 0048
ENCODING 72
SWIDTH 600 0
DWIDTH 10 0
BBX 8 15 0 0
BITMAP
C3
C3
C3
C3
C3
C3
C3
FF
FF
C3
C3
C3
C3
C3
C3
ENDCHAR
STARTCHAR 0049
ENCODING 73
SWIDTH 240 0
DWIDTH 4 0
BBX 2 15 0 0
BITMAP
C0
C0
C0
C0
C0
C0
C0
C0
C0
C0
C0
C0
C0
C0
C0
ENDCHAR
STARTCHAR 004A
ENCODING 74
SWIDTH 600 0
DWIDTH 10 0
BBX 8 15 0 0
BITMAP
03
03
03
03
03
03
03
03
03
03
03
C3
C3
3C
3C
ENDCHAR
STARTCHAR 004B
ENCODING 75
SWIDTH 600 0
DWIDTH 10 0
BBX 8 15 0 0
BITMAP
C3
C3
C3
C3
C4
CC
CC
F0
F0
CC
CC
C3
C3
C3
C3
ENDCHAR
STARTCHAR 004C
ENCODING 76
SWIDTH 600 0
DWIDTH 10 0
BBX 8 15 0 0
BITMAP
C0
C0
C0
C0
C0
C0
C0
C0
C0
C0
C0
C0
C0
FF
FF
ENDCHAR
STARTCHAR 004D
ENCODING 77
SWIDTH 780 0
DWIDTH 13 0
BBX 10 15 0 0
BITMAP
C0C0
C0C0
C0C0
C0C0
C0C0
F3C0
F3C0
CCC0
CCC0
C0C0
C0C0
C0C0
C0C0
C0C0
C0C0
ENDCHAR
STARTCHAR 004E
ENCODING 78
SWIDTH 780 0
DWIDTH 13 0
BBX 10 15 0 0
BITMAP
C0C0
C0C0
C0C0
C0C0
C0C0
F0C0
F0C0
CCC0
CCC0
C3C0
C3C0
C0C0
C0C0
C0C0
C0C0
ENDCHAR
STARTCHAR 004F
ENCODING 79
SWIDTH 600 0
DWIDTH 10 0
BBX 8 15 0 0
BITMAP
3C
3C
C3
C3
C3
C3
C3
C3
C3
C3
C3
C3
C3
3C
3C
ENDCHAR
STARTCHAR 0050
ENCODING 80
SWIDTH 600 0
DWIDTH 10 0
BBX 8 15 0 0
BITMAP
FC
FC
C3
C3
C3
C3
C4
FC
FC
C0
C0
C0
C0
C0
C0
ENDCHAR
STARTCHAR 0051
ENCODING 81
SWIDTH 600 0
DWIDTH 10 0
BBX 8 17 0 -2
BITMAP
3C
3C
C3
C3
C3
C3
C3
C3
C3
C3
C3
C3
C3
3C
3C
03
03
ENDCHAR
STARTCHAR 0052
ENCODING 82
SWIDTH 600 0
DWIDTH 10 0
BBX 8 15 0 0
BITMAP
FC
FC
C3
C3
C3
C3
C4
FC
FC
C3
C3
C3
C3
C3
C3
ENDCHAR
STARTCHAR 0053
ENCODING 83
SWIDTH 600 0
DWIDTH 10 0
BBX 8 15 0 0
BITMAP
3C
3C
C3
C3
C0
C0
40
3C
3C
03
03
C3
C3
3C
3C
ENDCHAR
STARTCHAR 0054
ENCODING 84
SWIDTH 780 0
DWIDTH 13 0
BBX 10 15 0 0
BITMAP
FFC0
FFC0
0C00
0C00
0C00
0C00
0C00
0C00
0C00
0C00
0C00
0C00
0C00
0C00
0C00
ENDCHAR
STARTCHAR 0055
ENCODING 85
SWIDTH 600 0
DWIDTH 10 0
BBX 8 15 0 0
BITMAP
C3
C3
C3
C3
C3
C3
C3
C3
C3
C3
C3
C3
C3
3C
3C
ENDCHAR
STARTCHAR 0056
ENCODING 86
SWIDTH 780 0
DWIDTH 13 0
BBX 10 15 0 0
BITMAP
C0C0
C0C0
C0C0
C0C0
C0C0
C0C0
C0C0
C0C0
C0C0
C0C0
C0C0
3300
3300
0C00
0C00
ENDCHAR
STARTCHAR 0057
ENCODING 87
SWIDTH 780 0
DWIDTH 13 0
BBX 10 15 0 0
BITMAP
C0C0
C0C0
C0C0
C0C0
C0C0
C0C0
C0C0
CCC0
CCC0
CCC0
CCC0
CCC0
CCC0
3300
3300
ENDCHAR
STARTCHAR 0058
ENCODING 88
SWIDTH 600 0
DWIDTH 10 0
BBX 8 15 0 0
BITMAP
C3
C3
C3
C3
C3
C3
C3
3C
3C
C3
C3
C3
C3
C3
C3
ENDCHAR
STARTCHAR 0059
ENCODING 89
SWIDTH 780 0
DWIDTH 13 0
BBX 10 15 0 0
BITMAP
C0C0
C0C0
C0C0
C0C0
4100
3300
3300
0C00
0C00
0C00
0C00
0C00
0C00
0C00
0C00
ENDCHAR
STARTCHAR 005A
ENCODING 90
SWIDTH 780 0
DWIDTH 13 0
BBX 10 15 0 0
BITMAP
FFC0
FFC0
00C0
00C0
0100
0300
0300
0C00
0C00
3000
3000
C000
C000
FFC0
FFC0
ENDCHAR
STARTCHAR 005B
ENCODING 91
SWIDTH 480 0
DWIDTH 8 0
BBX 6 15 0 0
BITMAP
FC
FC
C0
C0
C0
C0
C0
C0
C0
C0
C0
C0
C0
FC
FC
ENDCHAR
STARTCHAR 005C
ENCODING 92
SWIDTH 1020 0
DWIDTH 17 0
BBX 15 15 0 0
BITMAP
C000
C000
3000
3000
1000
0C00
0C00
0300
0300
00C0
00C0
0038
0038
000E
000E
ENDCHAR
STARTCHAR 005D
ENCODING 93
SWIDTH 1020 0
DWIDTH 17 0
BBX 6 15 0 0
BITMAP
FC
FC
0C
0C
0C
0C
0C
0C
0C
0C
0C
0C
0C
FC
FC
ENDCHAR
STARTCHAR 005E
ENCODING 94
SWIDTH 480 0
DWIDTH 8 0
BBX 6 5 0 10
BITMAP
30
30
50
CC
CC
ENDCHAR
STARTCHAR 005F
ENCODING 95
SWIDTH 600 0
DWIDTH 10 0
BBX 8 2 0 0
BITMAP
FF
FF
ENDCHAR
STARTCHAR 0060
ENCODING 96
SWIDTH 360 0
DWIDTH 6 0
BBX 4 5 0 10
BITMAP
C0
C0
40
30
30
ENDCHAR
STARTCHAR 0061
ENCODING 97
SWIDTH 600 0
DWIDTH 10 0
BBX 8 10 0 0
BITMAP
3F
3F
C3
C3
C3
C3
C3
C3
3F
3F
ENDCHAR
STARTCHAR 0062
ENCODING 98
SWIDTH 600 0
DWIDTH 10 0
BBX 8 15 0 0
BITMAP
C0
C0
C0
C0
C0
FC
FC
C3
C3
C3
C3
C3
C3
FC
FC
ENDCHAR
STARTCHAR 0063
ENCODING 99
SWIDTH 600 0
DWIDTH 10 0
BBX 8 10 0 0
BITMAP
3F
3F
C0
C0
C0
C0
C0
C0
3F
3F
ENDCHAR
STARTCHAR 0064
ENCODING 100
SWIDTH 600 0
DWIDTH 10 0
BBX 8 15 0 0
BITMAP
03
03
03
03
03
3F
3F
C3
C3
C3
C3
C3
C3
3F
3F
ENDCHAR
STARTCHAR 0065
ENCODING 101
SWIDTH 600 0
DWIDTH 10 0
BBX 8 10 0 0
BITMAP
3C
3C
C3
C3
FF
FF
C0
C0
3C
3C
ENDCHAR
STARTCHAR 0066
ENCODING 102
SWIDTH 360 0
DWIDTH 6 0
BBX 4 15 0 0
BITMAP
30
30
C0
C0
C0
C0
C0
F0
F0
C0
C0
C0
C0
C0
C0
ENDCHAR
STARTCHAR 0067
ENCODING 103
SWIDTH 600 0
DWIDTH 10 0
BBX 8 14 0 -4
BITMAP
3F
3F
C3
C3
C3
C3
C3
C3
3F
3F
03
03
3C
3C
ENDCHAR
STARTCHAR 0068
ENCODING 104
SWIDTH 600 0
DWIDTH 10 0
BBX 8 15 0 0
BITMAP
C0
C0
C0
C0
C0
FC
FC
C3
C3
C3
C3
C3
C3
C3
C3
ENDCHAR
STARTCHAR 0069
ENCODING 105
SWIDTH 240 0
DWIDTH 4 0
BBX 2 15 0 0
BITMAP
C0
C0
00
00
00
C0
C0
C0
C0
C0
C0
C0
C0
C0
C0
ENDCHAR
STARTCHAR 006A
ENCODING 106
SWIDTH 480 0
DWIDTH 8 0
BBX 6 19 0 -4
BITMAP
0C
0C
00
00
00
3C
3C
0C
0C
0C
0C
0C
0C
0C
0C
0C
0C
F0
F0
ENDCHAR
STARTCHAR 006B
ENCODING 107
SWIDTH 600 0
DWIDTH 10 0
BBX 8 15 0 0
BITMAP
C0
C0
C0
C0
C0
C3
C3
CC
CC
F0
F0
CC
CC
C3
C3
ENDCHAR
STARTCHAR 006C
ENCODING 108
SWIDTH 360 0
DWIDTH 6 0
BBX 4 15 0 0
BITMAP
C0
C0
C0
C0
C0
C0
C0
C0
C0
C0
C0
C0
C0
30
30
ENDCHAR
STARTCHAR 006D
ENCODING 109
SWIDTH 780 0
DWIDTH 13 0
BBX 10 10 0 0
BITMAP
F300
F300
CCC0
CCC0
CCC0
CCC0
CCC0
CCC0
CCC0
CCC0
ENDCHAR
STARTCHAR 006E
ENCODING 110
SWIDTH 600 0
DWIDTH 10 0
BBX 8 10 0 0
BITMAP
CC
CC
F3
F3
C3
C3
C3
C3
C3
C3
ENDCHAR
STARTCHAR 006F
ENCODING 111
SWIDTH 600 0
DWIDTH 10 0
BBX 8 10 0 0
BITMAP
3C
3C
C3
C3
C3
C3
C3
C3
3C
3C
ENDCHAR
STARTCHAR 0070
ENCODING 112
SWIDTH 600 0
DWIDTH 10 0
BBX 8 14 0 -4
BITMAP
FC
FC
C3
C3
C3
C3
C3
C3
FC
FC
C0
C0
C0
C0
ENDCHAR
STARTCHAR 0071
ENCODING 113
SWIDTH 600 0
DWIDTH 10 0
BBX 8 14 0 -4
BITMAP
3F
3F
C3
C3
C3
C3
C3
C3
3F
3F
03
03
03
03
ENDCHAR
STARTCHAR 0072
ENCODING 114
SWIDTH 600 0
DWIDTH 10 0
BBX 8 10 0 0
BITMAP
CF
CF
F0
F0
C0
C0
C0
C0
C0
C0
ENDCHAR
STARTCHAR 0073
ENCODING 115
SWIDTH 600 0
DWIDTH 10 0
BBX 8 10 0 0
BITMAP
3F
3F
C0
C0
3C
3C
03
03
FC
FC
ENDCHAR
STARTCHAR 0074
ENCODING 116
SWIDTH 480 0
DWIDTH 8 0
BBX 6 15 0 0
BITMAP
30
30
30
30
30
FC
FC
30
30
30
30
30
30
30
30
ENDCHAR
STARTCHAR 0075
ENCODING 117
SWIDTH 600 0
DWIDTH 10 0
BBX 8 10 0 0
BITMAP
C3
C3
C3
C3
C3
C3
C3
C3
3F
3F
ENDCHAR
STARTCHAR 0076
ENCODING 118
SWIDTH 600 0
DWIDTH 10 0
BBX 8 10 0 0
BITMAP
C3
C3
C3
C3
C3
C3
C3
C3
3C
3C
ENDCHAR
STARTCHAR 0077
ENCODING 119
SWIDTH 780 0
DWIDTH 13 0
BBX 10 10 0 0
BITMAP
C0C0
C0C0
C0C0
C0C0
CCC0
CCC0
CCC0
CCC0
3300
3300
ENDCHAR
STARTCHAR 0078
ENCODING 120
SWIDTH 600 0
DWIDTH 10 0
BBX 8 10 0 0
BITMAP
C3
C3
C3
C3
3C
3C
C3
C3
C3
C3
ENDCHAR
STARTCHAR 0079
ENCODING 121
SWIDTH 600 0
DWIDTH 10 0
BBX 8 14 0 -4
BITMAP
C3
C3
C3
C3
C3
C3
C3
C3
3F
3F
03
03
3C
3C
ENDCHAR
STARTCHAR 007A
ENCODING 122
SWIDTH 600 0
DWIDTH 10 0
BBX 8 10 0 0
BITMAP
FF
FF
03
03
3C
3C
C0
C0
FF
FF
ENDCHAR
STARTCHAR 007B
ENCODING 123
SWIDTH 600 0
DWIDTH 10 0
BBX 8 15 0 0
BITMAP
0F
0F
30
30
30
30
30
F0
F0
30
30
30
30
0F
0F
ENDCHAR
STARTCHAR 007C
ENCODING 124
SWIDTH 240 0
DWIDTH 4 0
BBX 2 15 0 0
BITMAP
C0
C0
C0
C0
C0
C0
C0
C0
C0
C0
C0
C0
C0
C0
C0
ENDCHAR
STARTCHAR 007D
ENCODING 125
SWIDTH 600 0
DWIDTH 10 0
BBX 8 15 0 0
BITMAP
F0
F0
0C
0C
0C
0C
0C
0F
0F
0C
0C
0C
0C
F0
F0
ENDCHAR
STARTCHAR 007E
ENCODING 126
SWIDTH 600 0
DWIDTH 10 0
BBX 8 4 0 4
BITMAP
33
33
CC
CC
ENDCHAR
STARTCHAR 00A1
ENCODING 161
SWIDTH 240 0
DWIDTH 4 0
BBX 2 15 0 0
BITMAP
C0
C0
00
00
00
C0
C0
C0
C0
C0
C0
C0
C0
C0
C0
ENDCHAR
STARTCHAR 00A2
ENCODING 162
SWIDTH 600 0
DWIDTH 10 0
BBX 8 15 0 0
BITMAP
0C
0C
3F
3F
4C
CC
CC
CC
CC
CC
CC
3F
3F
0C
0C
ENDCHAR
STARTCHAR 00A3
ENCODING 163
SWIDTH 780 0
DWIDTH 13 0
BBX 10 15 0 0
BITMAP
0F00
0F00
30C0
30C0
3000
3000
3000
FC00
FC00
3000
3000
3000
3000
FF00
FF00
ENDCHAR
STARTCHAR 00A4
ENCODING 164
SWIDTH 1020 0
DWIDTH 17 0
BBX 0 0 0 0
BITMAP
ENDCHAR
STARTCHAR 00A5
ENCODING 165
SWIDTH 780 0
DWIDTH 13 0
BBX 10 17 0 -2
BITMAP
C0C0
C0C0
3300
3300
3300
3300
1400
0C00
0C00
3F00
3F00
0C00
0C00
3F00
3F00
0C00
0C00
ENDCHAR
STARTCHAR 00A6
ENCODING 166
SWIDTH 240 0
DWIDTH 4 0
BBX 2 15 0 0
BITMAP
C0
C0
C0
C0
C0
C0
C0
00
00
C0
C0
C0
C0
C0
C0
ENDCHAR
STARTCHAR 00A7
ENCODING 167
SWIDTH 480 0
DWIDTH 8 0
BBX 6 19 0 0
BITMAP
30
30
CC
CC
C0
C0
30
30
50
CC
CC
30
30
0C
0C
CC
CC
30
30
ENDCHAR
STARTCHAR 00A8
ENCODING 168
SWIDTH 480 0
DWIDTH 8 0
BBX 6 2 0 13
BITMAP
CC
CC
ENDCHAR
STARTCHAR 00A9
ENCODING 169
SWIDTH 900 0
DWIDTH 15 0
BBX 13 15 0 0
BITMAP
3FC0
3FC0
C038
C038
C038
CF38
CF38
CC38
CC38
CF38
CF38
C038
C038
3FC0
3FC0
ENDCHAR
STARTCHAR 00AA
ENCODING 170
SWIDTH 600 0
DWIDTH 10 0
BBX 8 15 0 0
BITMAP
3C
3C
C3
C3
C3
C3
C3
C3
C3
3F
3F
00
00
FF
FF
ENDCHAR
STARTCHAR 00AB
ENCODING 171
SWIDTH 780 0
DWIDTH 13 0
BBX 10 11 0 2
BITMAP
0CC0
0CC0
1500
3300
3300
CC00
CC00
3300
3300
0CC0
0CC0
ENDCHAR
STARTCHAR 00AC
ENCODING 172
SWIDTH 600 0
DWIDTH 10 0
BBX 8 4 0 2
BITMAP
FF
FF
03
03
ENDCHAR
STARTCHAR 00AE
ENCODING 174
SWIDTH 1020 0
DWIDTH 17 0
BBX 15 17 0 0
BITMAP
3FF8
3FF8
C00E
C00E
CF0E
CF0E
CD0E
CCCE
CCCE
CF0E
CF0E
CCCE
CCCE
C00E
C00E
3FF8
3FF8
ENDCHAR
STARTCHAR 00AF
ENCODING 175
SWIDTH 600 0
DWIDTH 10 0
BBX 8 2 0 13
BITMAP
FF
FF
ENDCHAR
STARTCHAR 00B0
ENCODING 176
SWIDTH 480 0
DWIDTH 8 0
BBX 6 7 0 8
BITMAP
30
30
50
CC
CC
30
30
ENDCHAR
STARTCHAR 00B1
ENCODING 177
SWIDTH 480 0
DWIDTH 8 0
BBX 6 11 0 2
BITMAP
30
30
30
FC
FC
30
30
00
00
FC
FC
ENDCHAR
STARTCHAR 00B2
ENCODING 178
SWIDTH 1020 0
DWIDTH 17 0
BBX 0 0 0 0
BITMAP
ENDCHAR
STARTCHAR 00B3
ENCODING 179
SWIDTH 480 0
DWIDTH 8 0
BBX 6 11 0 2
BITMAP
F0
F0
10
0C
0C
30
30
0C
0C
F0
F0
ENDCHAR
STARTCHAR 00B4
ENCODING 180
SWIDTH 360 0
DWIDTH 6 0
BBX 4 5 0 10
BITMAP
30
30
40
C0
C0
ENDCHAR
STARTCHAR 00B5
ENCODING 181
SWIDTH 780 0
DWIDTH 13 0
BBX 10 17 0 -2
BITMAP
C300
C300
C300
C300
C300
C300
C300
C300
C300
C300
C300
FC00
FC00
C300
C300
00C0
00C0
ENDCHAR
STARTCHAR 00B6
ENCODING 182
SWIDTH 1020 0
DWIDTH 17 0
BBX 15 15 0 0
BITMAP
3FFE
3FFE
FF38
FF38
FF38
FF38
3F38
3F38
3F38
0338
0338
0338
0338
0338
0338
ENDCHAR
STARTCHAR 00B7
ENCODING 183
SWIDTH 240 0
DWIDTH 4 0
BBX 2 2 0 6
BITMAP
C0
C0
ENDCHAR
STARTCHAR 00B8
ENCODING 184
SWIDTH 480 0
DWIDTH 8 0
BBX 6 8 0 0
BITMAP
30
30
0C
0C
30
30
C0
C0
ENDCHAR
STARTCHAR 00B9
ENCODING 185
SWIDTH 360 0
DWIDTH 6 0
BBX 4 9 0 6
BITMAP
30
30
F0
F0
30
30
30
30
30
ENDCHAR
STARTCHAR 00BA
ENCODING 186
SWIDTH 480 0
DWIDTH 8 0
BBX 6 7 0 8
BITMAP
30
30
50
CC
CC
30
30
ENDCHAR
STARTCHAR 00BB
ENCODING 187
SWIDTH 600 0
DWIDTH 10 0
BBX 8 6 0 4
BITMAP
CC
CC
33
33
CC
CC
ENDCHAR
STARTCHAR 00BC
ENCODING 188
SWIDTH 1140 0
DWIDTH 19 0
BBX 17 13 0 0
BITMAP
30C000
30C000
30C000
F0C000
F0C000
333800
333800
333980
333980
0C3F80
0C3F80
0C0180
0C0180
ENDCHAR
STARTCHAR 00BD
ENCODING 189
SWIDTH 1140 0
DWIDTH 19 0
BBX 17 13 0 0
BITMAP
30C000
30C000
30C000
F0C000
F0C000
330E00
330E00
333980
333980
0C0E00
0C0E00
0C3F80
0C3F80
ENDCHAR
STARTCHAR 00BE
ENCODING 190
SWIDTH 1140 0
DWIDTH 19 0
BBX 17 13 0 0
BITMAP
C0C000
C0C000
40C000
30C000
30C000
C33800
C33800
333980
333980
CC3F80
CC3F80
0C0180
0C0180
ENDCHAR
STARTCHAR 00BF
ENCODING 191
SWIDTH 600 0
DWIDTH 10 0
BBX 8 15 0 0
BITMAP
0C
0C
00
00
00
0C
0C
30
30
C0
C0
C3
C3
3C
3C
ENDCHAR
STARTCHAR 00C0
ENCODING 192
SWIDTH 600 0
DWIDTH 10 0
BBX 8 21 0 0
BITMAP
30
30
0C
0C
00
00
3C
3C
C3
C3
C3
C3
C3
FF
FF
C3
C3
C3
C3
C3
C3
ENDCHAR
STARTCHAR 00C1
ENCODING 193
SWIDTH 600 0
DWIDTH 10 0
BBX 8 21 0 0
BITMAP
0C
0C
30
30
00
00
3C
3C
C3
C3
C3
C3
C3
FF
FF
C3
C3
C3
C3
C3
C3
ENDCHAR
STARTCHAR 00C2
ENCODING 194
SWIDTH 600 0
DWIDTH 10 0
BBX 8 21 0 0
BITMAP
3C
3C
C3
C3
00
00
3C
3C
C3
C3
C3
C3
C3
FF
FF
C3
C3
C3
C3
C3
C3
ENDCHAR
STARTCHAR 00C3
ENCODING 195
SWIDTH 600 0
DWIDTH 10 0
BBX 8 21 0 0
BITMAP
33
33
CC
CC
00
00
3C
3C
C3
C3
C3
C3
C3
FF
FF
C3
C3
C3
C3
C3
C3
ENDCHAR
STARTCHAR 00C4
ENCODING 196
SWIDTH 600 0
DWIDTH 10 0
BBX 8 19 0 0
BITMAP
C3
C3
00
00
3C
3C
C3
C3
C3
C3
C3
FF
FF
C3
C3
C3
C3
C3
C3
ENDCHAR
STARTCHAR 00C5
ENCODING 197
SWIDTH 600 0
DWIDTH 10 0
BBX 8 23 0 0
BITMAP
30
30
CC
CC
30
30
00
00
3C
3C
C3
C3
C3
C3
C3
FF
FF
C3
C3
C3
C3
C3
C3
ENDCHAR
STARTCHAR 00C6
ENCODING 198
SWIDTH 900 0
DWIDTH 15 0
BBX 13 15 0 0
BITMAP
3CF8
3CF8
C300
C300
C300
C300
C300
FFF8
FFF8
C300
C300
C300
C300
C3F8
C3F8
ENDCHAR
STARTCHAR 00C7
ENCODING 199
SWIDTH 600 0
DWIDTH 10 0
BBX 8 21 0 -4
BITMAP
3C
3C
C3
C3
C0
C0
C0
C0
C0
C0
C0
C3
C3
3C
3C
03
03
0C
0C
30
30
ENDCHAR
STARTCHAR 00C8
ENCODING 200
SWIDTH 480 0
DWIDTH 8 0
BBX 6 21 0 0
BITMAP
C0
C0
30
30
00
00
FC
FC
C0
C0
C0
C0
C0
FC
FC
C0
C0
C0
C0
FC
FC
ENDCHAR
STARTCHAR 00C9
ENCODING 201
SWIDTH 480 0
DWIDTH 8 0
BBX 6 21 0 0
BITMAP
0C
0C
30
30
00
00
FC
FC
C0
C0
C0
C0
C0
FC
FC
C0
C0
C0
C0
FC
FC
ENDCHAR
STARTCHAR 00CA
ENCODING 202
SWIDTH 480 0
DWIDTH 8 0
BBX 6 21 0 0
BITMAP
30
30
CC
CC
00
00
FC
FC
C0
C0
C0
C0
C0
FC
FC
C0
C0
C0
C0
FC
FC
ENDCHAR
STARTCHAR 00CB
ENCODING 203
SWIDTH 480 0
DWIDTH 8 0
BBX 6 19 0 0
BITMAP
CC
CC
00
00
FC
FC
C0
C0
C0
C0
C0
FC
FC
C0
C0
C0
C0
FC
FC
ENDCHAR
STARTCHAR 00CC
ENCODING 204
SWIDTH 360 0
DWIDTH 6 0
BBX 4 15 0 0
BITMAP
C0
C0
30
30
00
00
00
30
30
30
30
30
30
30
30
ENDCHAR
STARTCHAR 00CD
ENCODING 205
SWIDTH 360 0
DWIDTH 6 0
BBX 4 15 0 0
BITMAP
30
30
C0
C0
00
00
00
C0
C0
C0
C0
C0
C0
C0
C0
ENDCHAR
STARTCHAR 00CE
ENCODING 206
SWIDTH 480 0
DWIDTH 8 0
BBX 6 17 0 0
BITMAP
30
30
CC
CC
00
00
00
30
30
30
30
30
30
30
30
30
30
ENDCHAR
STARTCHAR 00CF
ENCODING 207
SWIDTH 480 0
DWIDTH 8 0
BBX 6 15 0 0
BITMAP
CC
CC
00
00
00
30
30
30
30
30
30
30
30
30
30
ENDCHAR
STARTCHAR 00D0
ENCODING 208
SWIDTH 780 0
DWIDTH 13 0
BBX 10 15 0 0
BITMAP
3F00
3F00
30C0
30C0
30C0
30C0
30C0
FCC0
FCC0
30C0
30C0
30C0
30C0
3F00
3F00
ENDCHAR
STARTCHAR 00D1
ENCODING 209
SWIDTH 600 0
DWIDTH 10 0
BBX 8 21 0 0
BITMAP
33
33
CC
CC
00
00
C3
C3
C3
C3
C3
F3
F3
CF
CF
C3
C3
C3
C3
C3
C3
ENDCHAR
STARTCHAR 00D2
ENCODING 210
SWIDTH 600 0
DWIDTH 10 0
BBX 8 21 0 0
BITMAP
30
30
0C
0C
00
00
3C
3C
C3
C3
C3
C3
C3
C3
C3
C3
C3
C3
C3
3C
3C
ENDCHAR
STARTCHAR 00D3
ENCODING 211
SWIDTH 600 0
DWIDTH 10 0
BBX 8 21 0 0
BITMAP
0C
0C
30
30
00
00
3C
3C
C3
C3
C3
C3
C3
C3
C3
C3
C3
C3
C3
3C
3C
ENDCHAR
STARTCHAR 00D4
ENCODING 212
SWIDTH 600 0
DWIDTH 10 0
BBX 8 21 0 0
BITMAP
3C
3C
C3
C3
00
00
3C
3C
C3
C3
C3
C3
C3
C3
C3
C3
C3
C3
C3
3C
3C
ENDCHAR
STARTCHAR 00D5
ENCODING 213
SWIDTH 600 0
DWIDTH 10 0
BBX 8 21 0 0
BITMAP
33
33
CC
CC
00
00
3C
3C
C3
C3
C3
C3
C3
C3
C3
C3
C3
C3
C3
3C
3C
ENDCHAR
STARTCHAR 00D6
ENCODING 214
SWIDTH 600 0
DWIDTH 10 0
BBX 8 19 0 0
BITMAP
C3
C3
00
00
3C
3C
C3
C3
C3
C3
C3
C3
C3
C3
C3
C3
C3
3C
3C
ENDCHAR
STARTCHAR 00D7
ENCODING 215
SWIDTH 900 0
DWIDTH 15 0
BBX 13 13 0 0
BITMAP
C038
C038
4040
30C0
30C0
0F00
0F00
0F00
0F00
30C0
30C0
C038
C038
ENDCHAR
STARTCHAR 00D8
ENCODING 216
SWIDTH 900 0
DWIDTH 15 0
BBX 13 13 0 0
BITMAP
0F38
0F38
1140
30C0
30C0
33C0
33C0
3CC0
3CC0
30C0
30C0
CF00
CF00
ENDCHAR
STARTCHAR 00D9
ENCODING 217
SWIDTH 600 0
DWIDTH 10 0
BBX 8 21 0 0
BITMAP
30
30
0C
0C
00
00
C3
C3
C3
C3
C3
C3
C3
C3
C3
C3
C3
C3
C3
3C
3C
ENDCHAR
STARTCHAR 00DA
ENCODING 218
SWIDTH 600 0
DWIDTH 10 0
BBX 8 21 0 0
BITMAP
0C
0C
30
30
00
00
C3
C3
C3
C3
C3
C3
C3
C3
C3
C3
C3
C3
C3
3C
3C
ENDCHAR
STARTCHAR 00DB
ENCODING 219
SWIDTH 600 0
DWIDTH 10 0
BBX 8 21 0 0
BITMAP
3C
3C
C3
C3
00
00
C3
C3
C3
C3
C3
C3
C3
C3
C3
C3
C3
C3
C3
3C
3C
ENDCHAR
STARTCHAR 00DC
ENCODING 220
SWIDTH 600 0
DWIDTH 10 0
BBX 8 19 0 0
BITMAP
C3
C3
00
00
C3
C3
C3
C3
C3
C3
C3
C3
C3
C3
C3
C3
C3
3C
3C
ENDCHAR
STARTCHAR 00DD
ENCODING 221
SWIDTH 780 0
DWIDTH 13 0
BBX 10 21 0 0
BITMAP
0C00
0C00
3000
3000
0000
0000
C0C0
C0C0
C0C0
C0C0
4100
3300
3300
0C00
0C00
0C00
0C00
0C00
0C00
0C00
0C00
ENDCHAR
STARTCHAR 00DE
ENCODING 222
SWIDTH 780 0
DWIDTH 13 0
BBX 10 15 0 0
BITMAP
C000
C000
C000
C000
C000
FF00
FF00
C0C0
C0C0
C0C0
C0C0
FF00
FF00
C000
C000
ENDCHAR
STARTCHAR 00DF
ENCODING 223
SWIDTH 600 0
DWIDTH 10 0
BBX 8 15 0 0
BITMAP
3C
3C
FF
C3
C3
C3
C3
CC
CC
C3
C3
C3
C3
CC
CC
ENDCHAR
STARTCHAR 00E0
ENCODING 224
SWIDTH 600 0
DWIDTH 10 0
BBX 8 17 0 0
BITMAP
30
30
0C
0C
00
00
00
3C
3C
C3
C3
C3
C3
C3
C3
3F
3F
ENDCHAR
STARTCHAR 00E1
ENCODING 225
SWIDTH 600 0
DWIDTH 10 0
BBX 8 17 0 0
BITMAP
0C
0C
30
30
00
00
00
3C
3C
C3
C3
C3
C3
C3
C3
3F
3F
ENDCHAR
STARTCHAR 00E2
ENCODING 226
SWIDTH 600 0
DWIDTH 10 0
BBX 8 17 0 0
BITMAP
3C
3C
C3
C3
00
00
00
3C
3C
C3
C3
C3
C3
C3
C3
3F
3F
ENDCHAR
STARTCHAR 00E3
ENCODING 227
SWIDTH 600 0
DWIDTH 10 0
BBX 8 17 0 0
BITMAP
33
33
CC
CC
00
00
00
3C
3C
C3
C3
C3
C3
C3
C3
3F
3F
ENDCHAR
STARTCHAR 00E4
ENCODING 228
SWIDTH 600 0
DWIDTH 10 0
BBX 8 15 0 0
BITMAP
33
33
00
00
00
3F
3F
C3
C3
C3
C3
C3
C3
3F
3F
ENDCHAR
STARTCHAR 00E5
ENCODING 229
SWIDTH 600 0
DWIDTH 10 0
BBX 8 19 0 0
BITMAP
3C
3C
C3
C3
3C
3C
3C
00
00
3C
3C
C3
C3
C3
C3
C3
C3
3F
3F
ENDCHAR
STARTCHAR 00E6
ENCODING 230
SWIDTH 1020 0
DWIDTH 17 0
BBX 15 10 0 0
BITMAP
3CF8
3CF8
C30E
C30E
C3FE
C3FE
C300
C300
3FFE
3FFE
ENDCHAR
STARTCHAR 00E7
ENCODING 231
SWIDTH 480 0
DWIDTH 8 0
BBX 6 15 0 -2
BITMAP
3C
3C
40
C0
C0
C0
C0
C0
C0
3C
3C
0C
0C
30
30
ENDCHAR
STARTCHAR 00E8
ENCODING 232
SWIDTH 600 0
DWIDTH 10 0
BBX 8 17 0 0
BITMAP
30
30
0C
0C
00
00
00
3C
3C
C3
C3
FF
FF
C0
C0
3F
3F
ENDCHAR
STARTCHAR 00E9
ENCODING 233
SWIDTH 600 0
DWIDTH 10 0
BBX 8 17 0 0
BITMAP
0C
0C
30
30
00
00
00
3C
3C
C3
C3
FF
FF
C0
C0
3F
3F
ENDCHAR
STARTCHAR 00EA
ENCODING 234
SWIDTH 600 0
DWIDTH 10 0
BBX 8 17 0 0
BITMAP
3C
3C
C3
C3
00
00
00
3C
3C
C3
C3
FF
FF
C0
C0
3F
3F
ENDCHAR
STARTCHAR 00EB
ENCODING 235
SWIDTH 600 0
DWIDTH 10 0
BBX 8 15 0 0
BITMAP
C3
C3
00
00
00
3C
3C
C3
C3
FF
FF
C0
C0
3F
3F
ENDCHAR
STARTCHAR 00EC
ENCODING 236
SWIDTH 360 0
DWIDTH 6 0
BBX 4 17 0 0
BITMAP
C0
C0
30
30
00
00
00
30
30
30
30
30
30
30
30
30
30
ENDCHAR
STARTCHAR 00ED
ENCODING 237
SWIDTH 360 0
DWIDTH 6 0
BBX 4 17 0 0
BITMAP
30
30
C0
C0
00
00
00
C0
C0
C0
C0
C0
C0
C0
C0
C0
C0
ENDCHAR
STARTCHAR 00EE
ENCODING 238
SWIDTH 480 0
DWIDTH 8 0
BBX 6 17 0 0
BITMAP
30
30
CC
CC
00
00
00
30
30
30
30
30
30
30
30
30
30
ENDCHAR
STARTCHAR 00EF
ENCODING 239
SWIDTH 480 0
DWIDTH 8 0
BBX 6 15 0 0
BITMAP
CC
CC
00
00
00
30
30
30
30
30
30
30
30
30
30
ENDCHAR
STARTCHAR 00F0
ENCODING 240
SWIDTH 600 0
DWIDTH 10 0
BBX 8 19 0 0
BITMAP
30
30
0C
0C
30
30
C0
C0
C0
3C
3C
C3
C3
C3
C3
C3
C3
3C
3C
ENDCHAR
STARTCHAR 00F1
ENCODING 241
SWIDTH 600 0
DWIDTH 10 0
BBX 8 17 0 0
BITMAP
33
33
CC
CC
00
00
00
FC
FC
C3
C3
C3
C3
C3
C3
C3
C3
ENDCHAR
STARTCHAR 00F2
ENCODING 242
SWIDTH 600 0
DWIDTH 10 0
BBX 8 17 0 0
BITMAP
30
30
0C
0C
00
00
00
3C
3C
C3
C3
C3
C3
C3
C3
3C
3C
ENDCHAR
STARTCHAR 00F3
ENCODING 243
SWIDTH 600 0
DWIDTH 10 0
BBX 8 17 0 0
BITMAP
0C
0C
30
30
00
00
00
3C
3C
C3
C3
C3
C3
C3
C3
3C
3C
ENDCHAR
STARTCHAR 00F4
ENCODING 244
SWIDTH 600 0
DWIDTH 10 0
BBX 8 17 0 0
BITMAP
3C
3C
C3
C3
00
00
00
3C
3C
C3
C3
C3
C3
C3
C3
3C
3C
ENDCHAR
STARTCHAR 00F5
ENCODING 245
SWIDTH 600 0
DWIDTH 10 0
BBX 8 17 0 0
BITMAP
33
33
CC
CC
00
00
00
3C
3C
C3
C3
C3
C3
C3
C3
3C
3C
ENDCHAR
STARTCHAR 00F6
ENCODING 246
SWIDTH 600 0
DWIDTH 10 0
BBX 8 15 0 0
BITMAP
C3
C3
00
00
00
3C
3C
C3
C3
C3
C3
C3
C3
3C
3C
ENDCHAR
STARTCHAR 00F7
ENCODING 247
SWIDTH 780 0
DWIDTH 13 0
BBX 10 11 0 2
BITMAP
0C00
0C00
0000
0000
0000
FFC0
FFC0
0000
0000
0C00
0C00
ENDCHAR
STARTCHAR 00F8
ENCODING 248
SWIDTH 900 0
DWIDTH 15 0
BBX 13 13 0 0
BITMAP
0F38
0F38
1140
30C0
30C0
33C0
33C0
3CC0
3CC0
30C0
30C0
CF00
CF00
ENDCHAR
STARTCHAR 00F9
ENCODING 249
SWIDTH 600 0
DWIDTH 10 0
BBX 8 17 0 0
BITMAP
30
30
0C
0C
00
00
00
C3
C3
C3
C3
C3
C3
C3
C3
3F
3F
ENDCHAR
STARTCHAR 00FA
ENCODING 250
SWIDTH 600 0
DWIDTH 10 0
BBX 8 17 0 0
BITMAP
0C
0C
30
30
00
00
00
C3
C3
C3
C3
C3
C3
C3
C3
3F
3F
ENDCHAR
STARTCHAR 00FB
ENCODING 251
SWIDTH 600 0
DWIDTH 10 0
BBX 8 17 0 0
BITMAP
3C
3C
C3
C3
00
00
00
C3
C3
C3
C3
C3
C3
C3
C3
3F
3F
ENDCHAR
STARTCHAR 00FC
ENCODING 252
SWIDTH 600 0
DWIDTH 10 0
BBX 8 15 0 0
BITMAP
C3
C3
00
00
00
C3
C3
C3
C3
C3
C3
C3
C3
3F
3F
ENDCHAR
STARTCHAR 00FD
ENCODING 253
SWIDTH 600 0
DWIDTH 10 0
BBX 8 21 0 -4
BITMAP
0C
0C
30
30
00
00
00
C3
C3
C3
C3
C3
C3
C3
C3
3F
3F
03
03
3C
3C
ENDCHAR
STARTCHAR 00FE
ENCODING 254
SWIDTH 600 0
DWIDTH 10 0
BBX 8 15 0 0
BITMAP
C0
C0
C0
C0
C0
FC
FC
C3
C3
C3
C3
FC
FC
C0
C0
ENDCHAR
STARTCHAR 00FF
ENCODING 255
SWIDTH 600 0
DWIDTH 10 0
BBX 8 19 0 -4
BITMAP
C3
C3
00
00
00
C3
C3
C3
C3
C3
C3
C3
C3
3F
3F
03
03
3C
3C
ENDCHAR
STARTCHAR 02C9
ENCODING 713
SWIDTH 600 0
DWIDTH 10 0
BBX 8 2 0 13
BITMAP
FF
FF
ENDCHAR
STARTCHAR 03BC
ENCODING 956
SWIDTH 780 0
DWIDTH 13 0
BBX 10 17 0 -2
BITMAP
C300
C300
C300
C300
C300
C300
C300
C300
C300
C300
C300
FC00
FC00
C300
C300
00C0
00C0
ENDCHAR
STARTCHAR 2010
ENCODING 8208
SWIDTH 600 0
DWIDTH 10 0
BBX 8 2 0 6
BITMAP
FF
FF
ENDCHAR
STARTCHAR 2219
ENCODING 8729
SWIDTH 240 0
DWIDTH 4 0
BBX 2 2 0 6
BITMAP
C0
C0
ENDCHAR
ENDFONT
